<?xml version="1.0" encoding="UTF-8"?><svg id="Layer_2" xmlns="http://www.w3.org/2000/svg" viewBox="0 0 173.06 171.55"><defs><style>.cls-1{fill:#231f20;stroke-width:0px;}</style></defs><g id="Layer_1-2"><path class="cls-1" d="M40.53,115.51c1.7-6.74-2.6-14.1-8.19-18.62-6.2-5.01-13.97-7.66-20.64-12.02C5.01,80.51-.91,73.29.12,65.38c1.2-9.25,10.98-14.87,14.66-23.44,2.72-6.35,1.81-13.61,2.98-20.41,1.19-6.9,4.61-13.4,9.63-18.28C29.02,1.68,30.95.21,33.2.02c3.93-.32,6.97,3.22,9.29,6.41,8.63,11.86,17.26,23.71,25.89,35.57,7.03,9.66,14.31,19.92,15.62,31.8,1.79,16.22-7.77,33.57-.76,48.3,3.17,6.67,9.38,11.52,16.13,14.53,6.75,3,14.1,4.37,21.37,5.71,10.94,2.02,21.87,4.04,32.81,6.06,5.68,1.05,11.71,2.27,15.88,6.26s5.23,11.76.58,15.19c-3.2,2.36-7.64,1.82-11.53,1.01-30.48-6.31-58.19-21.7-85.36-36.88-12.17-6.8-20.42-11.67-32.59-18.48Z"/></g></svg>