<?xml version="1.0" encoding="UTF-8"?>
<svg id="Layer_2" data-name="Layer 2" xmlns="http://www.w3.org/2000/svg" viewBox="0 0 953.47 1138.75">
  <defs>
    <style>
      .cls-1 {
        fill: #eecaef;
        stroke-width: 0px;
      }
    </style>
  </defs>
  <g id="Layer_1-2" data-name="Layer 1">
    <path class="cls-1" d="M866.84,738.75c37.81,28.34,73.2,64.69,83.48,110.81,12.94,58.03-16.29,116.24-44.59,168.53-17.65,32.6-36.22,66.29-66.05,88.29-26.6,19.62-59.93,28.1-92.84,31.1-52.85,4.82-107.7-3.89-153.85-30.08-46.15-26.19-82.76-70.79-94.08-122.64-13.76-63.03,9.56-130.66-8.94-192.46-18.54-61.93-75.41-104.79-134.15-131.78-58.74-27-122.57-42.77-178.77-74.71C82.98,532.37,16.41,433.14,2.62,325.85c-4.86-37.79-3.42-76.83,8.32-113.08,14.98-46.26,46.08-86,82.68-118.01C222.56-17.98,427.9-31.87,570.86,62.49c89.97,59.39,150.13,158.37,169.25,263.72,9.11,50.19,12.87,109.38-6,157.78-16.31,41.84-38.21,65.56-18.93,112.2,27.93,67.59,96.27,101.04,151.66,142.55Z"/>
  </g>
</svg>