<?xml version="1.0" encoding="UTF-8"?><svg id="Layer_2" xmlns="http://www.w3.org/2000/svg" viewBox="0 0 348.57 189.15"><defs><style>.cls-1{fill:#231f20;stroke-width:0px;}</style></defs><g id="Layer_1-2"><path class="cls-1" d="M289.22,176.29c-3.15-7.9-3.58-16.91-8.18-24.07-2.71-4.22-6.7-7.48-9.65-11.55-5.05-6.96-6.72-15.77-10.53-23.48-7.27-14.71-21.64-24.35-35.39-33.3-7.45-4.85-15.19-9.82-23.98-11.16-5.42-.83-10.95-.23-16.42.24-25.77,2.2-51.8,1.28-77.35-2.73-5.76-.9-11.57-1.97-17.39-1.57-8.19.56-15.88,3.96-23.49,7.03-10.21,4.12-20.89,7.79-31.9,7.74-11.01-.05-22.53-4.41-28.75-13.5-3.42-5-5.01-11.04-5.75-17.05C-1.6,36.33,3.42,17.89,17.01,8.2,30.05-1.1,47.46-.46,63.45.56c22.72,1.45,45.48,2.9,67.93,6.65,7.65,1.28,15.35,2.83,23.1,2.42,8.4-.44,17.23-3.1,24.95.27,3.22,1.41,5.92,3.76,8.88,5.66,13.69,8.79,31.28,7.18,47.36,9.62,12.32,1.88,24.11,6.27,35.66,10.97,11.1,4.51,22.14,9.37,32.1,16.04,33.08,22.15,50.95,64.93,43.44,104.03-1.29,6.71-3.38,13.53-7.89,18.66-7.24,8.23-17.96,9.05-27.45,13.08s-18.71-2.64-22.31-11.66Z"/></g></svg>