<?xml version="1.0" encoding="UTF-8"?><svg id="Layer_2" xmlns="http://www.w3.org/2000/svg" viewBox="0 0 98.41 67.65"><defs><style>.cls-1{fill:#231f20;stroke-width:0px;}</style></defs><g id="Layer_1-2"><path class="cls-1" d="M51.62,67.21c-3.24.45-6.69.88-9.66-.5-2.98-1.38-4.95-4.35-7.82-5.94-5.98-3.31-13.79.24-20.13-2.3-5.8-2.32-8.51-8.85-10.63-14.73C1.17,37.57-1.08,30.94.57,24.59c1.22-4.7,4.42-8.59,7.54-12.32,3.16-3.78,6.46-7.67,10.89-9.81C23.66.2,29.04.13,34.22.1c5.72-.03,11.43-.07,17.15-.1,2.27-.01,4.74.04,6.5,1.48,1.37,1.13,2.02,2.89,2.98,4.39,1.89,2.98,4.96,4.95,7.77,7.07,11.11,8.4,19.02,20.25,26.71,31.86,1.47,2.22,2.99,4.6,3.09,7.26.33,9.23-11.93,10.55-18.58,11.4-9.41,1.2-18.81,2.43-28.21,3.75Z"/></g></svg>