<?xml version="1.0" encoding="UTF-8"?>
<svg id="Layer_2" data-name="Layer 2" xmlns="http://www.w3.org/2000/svg" viewBox="0 0 1050.91 1066.66">
  <defs>
    <style>
      .cls-1 {
        fill: #eecaef;
        stroke-width: 0px;
      }
    </style>
  </defs>
  <g id="Layer_1-2" data-name="Layer 1">
    <path class="cls-1" d="M112.8,424.64c-42.27-21.11-83.59-50.54-101.97-94.07-23.12-54.77-4.78-117.28,13.7-173.79,11.53-35.23,23.77-71.7,49.18-98.69,22.66-24.06,53.93-38.37,85.77-47.22,51.13-14.21,106.65-15.45,156.75,2.05,50.1,17.51,94.09,54.83,114.51,103.81,24.82,59.55,13.99,130.26,43.25,187.75,29.32,57.61,92.95,89.59,155.57,105.64,62.62,16.04,128.25,20.14,189.26,41.5,102.1,35.74,185.37,121.45,218.15,224.54,11.55,36.31,17.12,74.98,12.06,112.74-6.45,48.19-29.94,92.86-60.22,130.9-106.68,134-306.22,184.42-463.75,117.18-99.15-42.32-176.05-128.94-213.73-229.16-17.95-47.75-32.24-105.31-22.34-156.31,8.56-44.09,25.85-71.34-1.46-113.78-39.57-61.5-112.8-82.17-174.73-113.1Z"/>
  </g>
</svg>