<?xml version="1.0" encoding="UTF-8"?><svg id="Layer_2" xmlns="http://www.w3.org/2000/svg" viewBox="0 0 116.55 111.99"><defs><style>.cls-1{fill:#231f20;stroke-width:0px;}</style></defs><g id="Layer_1-2"><path class="cls-1" d="M10.35,22.46c-2.01,5.07-2.81,10.57-4.98,15.58C3.51,42.32.64,46.3.1,50.94c-.52,4.41,1.15,8.76,2.87,12.86,3.36,7.97,7.05,15.8,11.06,23.45,2.89,5.52,6.09,11.11,11.05,14.87,5.88,4.47,13.49,5.81,20.78,7.03,11,1.83,22.16,3.67,33.25,2.47,11.09-1.2,22.28-5.85,28.98-14.76,5.41-7.19,7.38-16.39,8.16-25.36.5-5.7.55-11.57-1.24-17-1.51-4.59-4.27-8.66-7-12.65-5.66-8.31-11.39-16.69-18.74-23.54C72.98,3.1,43.28-7.4,23.13,6.49c-5.69,3.92-10.23,9.53-12.78,15.97Z"/></g></svg>