<?xml version="1.0" encoding="UTF-8"?><svg id="Layer_2" xmlns="http://www.w3.org/2000/svg" viewBox="0 0 197.47 229.41"><defs><style>.cls-1{fill:#231f20;stroke-width:0px;}</style></defs><g id="Layer_1-2"><path class="cls-1" d="M18.47,82.24c-7.86-5.53-15.27-12.71-17.64-22.03-2.98-11.72,2.61-23.73,8.05-34.53,3.39-6.73,6.97-13.7,12.9-18.35C27.07,3.19,33.8,1.26,40.47.45c10.72-1.3,21.92.14,31.46,5.19,9.54,5.05,17.25,13.89,19.87,24.37,3.18,12.73-1.16,26.62,2.98,39.08,4.14,12.48,15.96,20.85,28.07,25.99,12.11,5.14,25.18,7.96,36.8,14.11,19.45,10.3,33.58,30.07,37.03,51.81,1.22,7.66,1.16,15.6-1.01,23.04-2.77,9.5-8.85,17.76-16.1,24.49-25.54,23.7-67.21,27.76-96.84,9.43-18.65-11.53-31.48-31.3-36-52.6-2.15-10.15-3.28-22.16.27-32.12,3.07-8.61,7.37-13.56,3.17-22.93-6.08-13.57-20.18-19.96-31.69-28.07Z"/></g></svg>