<?xml version="1.0" encoding="UTF-8"?><svg id="Layer_2" xmlns="http://www.w3.org/2000/svg" viewBox="0 0 121.99 133.67"><defs><style>.cls-1{fill:#231f20;stroke-width:0px;}</style></defs><g id="Layer_1-2"><path class="cls-1" d="M47.09,10.39c1.01-2.99,1.91-6.22,4.27-8.31,3.44-3.03,8.93-2.49,12.84-.09s6.64,6.25,9.46,9.87c7.32,9.38,15.87,17.79,25.36,24.95,6.83,5.15,14.32,9.84,19.06,16.96,4.74,7.12,5.76,17.67-.38,23.62-6.41,6.22-17.33,4.82-24.52,10.12-7.44,5.48-8.57,16.13-14.04,23.58-4.5,6.12-11.62,9.66-18.46,12.96-7.58,3.67-15.28,7.37-23.55,8.91s-17.35.69-24.24-4.16c-6.73-4.74-10.58-12.74-12.03-20.85s-.77-16.42-.09-24.62c1.47-17.66,8.55-22.59,20.44-33.48,11.13-10.2,21.08-25.19,25.89-39.48Z"/></g></svg>