<?xml version="1.0" encoding="UTF-8"?><svg id="Layer_2" xmlns="http://www.w3.org/2000/svg" viewBox="0 0 226.22 257.95"><defs><style>.cls-1{fill:#231f20;stroke-width:0px;}</style></defs><g id="Layer_1-2"><path class="cls-1" d="M38.96,250.34c-7.01,4.51-15.09,9-23.22,7.21-9.13-2.01-14.95-11.64-15.64-20.96-.69-9.32,2.58-18.43,5.81-27.2,11.05-30.05,23.81-62.27,50.99-79.17,10.69-6.65,23.65-10.98,30.61-21.48,6.07-9.14,6.12-21.01,4.35-31.84-1.76-10.83-5.13-21.49-5.14-32.46-.02-11.49,3.88-23.12,11.58-31.65C106.01,4.26,117.61-.87,129.06.12c26.51,2.3,42.26,31.03,58.6,48.4,10,10.63,36.2,20.68,38.38,36.39,3.06,22.06-33.71,41.1-47.65,52.74-21.97,18.34-43.25,37.48-65.04,56.02-23.67,20.14-47.98,40.17-74.39,56.67Z"/></g></svg>