<?xml version="1.0" encoding="UTF-8"?><svg id="Layer_2" xmlns="http://www.w3.org/2000/svg" viewBox="0 0 80.11 97.76"><defs><style>.cls-1{fill:#231f20;stroke-width:0px;}</style></defs><g id="Layer_1-2"><path class="cls-1" d="M.33,62.94c1.04-7.62,4.95-14.55,9.36-20.86C20.13,27.14,33.82,14.49,49.53,5.27,55.02,2.04,61.25-.85,67.53.23c8.21,1.42,14.18,10.55,12.2,18.64-.98,3.98-3.58,7.86-2.64,11.85.46,1.95,1.73,3.64,2.12,5.6.93,4.72-3.32,8.71-7.1,11.71-12.97,10.3-25.26,21.43-36.78,33.32-4.75,4.89-9.38,11.86-15.43,15.22-5.51,3.06-12.44-.07-14.92-5.61C1.35,82.86-.88,71.75.33,62.94Z"/></g></svg>