<?xml version="1.0" encoding="UTF-8"?><svg id="Layer_2" xmlns="http://www.w3.org/2000/svg" viewBox="0 0 158.66 184.34"><defs><style>.cls-1{fill:#231f20;stroke-width:0px;}</style></defs><g id="Layer_1-2"><path class="cls-1" d="M61.15,166.9c-.3,4.94-.41,10.49,2.96,14.12,4.52,4.86,12.43,3.51,18.75,1.47,22.57-7.27,43.9-18.4,62.76-32.77,5.79-4.41,11.74-9.78,12.85-16.98,1.32-8.64-4.72-16.49-10.39-23.14-27.46-32.19-54.92-64.38-82.38-96.57-4.06-4.76-8.39-9.72-14.27-11.86-5.95-2.17-12.69-1.09-18.44,1.55s-10.7,6.72-15.58,10.75C9.41,20.07.78,27.86.05,38.2c-.67,9.46,5.54,17.87,11.42,25.31,14.18,17.91,28.38,35.81,42.53,53.74,4.58,5.8,8.55,10.31,8.99,17.85.6,10.39-1.2,21.4-1.84,31.79Z"/></g></svg>