<?xml version="1.0" encoding="utf-8"?>
<!-- Generator: Adobe Illustrator 28.2.0, SVG Export Plug-In . SVG Version: 6.00 Build 0)  -->
<svg version="1.1" id="Layer_2_00000153677167540363323740000010670273912752149916_"
	 xmlns="http://www.w3.org/2000/svg" xmlns:xlink="http://www.w3.org/1999/xlink" x="0px" y="0px" viewBox="0 0 197.5 229.4"
	 style="enable-background:new 0 0 197.5 229.4;" xml:space="preserve">
<style type="text/css">
	.st0{fill:#231F20;}
</style>
<g id="Layer_1-2">
	<path class="st0" d="M179,147.2c7.9,5.5,15.3,12.7,17.6,22c3,11.7-2.6,23.7-8.1,34.5c-3.4,6.7-7,13.7-12.9,18.3
		c-5.3,4.1-12,6.1-18.7,6.9c-10.7,1.3-21.9-0.1-31.5-5.2s-17.2-13.9-19.9-24.4c-3.2-12.7,1.2-26.6-3-39.1c-4.1-12.5-16-20.9-28.1-26
		s-25.2-8-36.8-14.1c-19.4-10.3-33.6-30.1-37-51.8c-1.2-7.7-1.2-15.6,1-23c2.8-9.5,8.9-17.8,16.1-24.5c25.5-23.7,67.2-27.8,96.8-9.4
		c18.6,11.5,31.5,31.3,36,52.6c2.1,10.1,3.3,22.2-0.3,32.1c-3.1,8.6-7.4,13.6-3.2,22.9C153.4,132.7,167.5,139.1,179,147.2L179,147.2
		z"/>
</g>
</svg>
